<svg width="27" height="13" viewBox="0 0 27 13" fill="none" xmlns="http://www.w3.org/2000/svg">
<path d="M6.39158 12.8713C4.77261 12.8713 3.08617 12.2641 1.87194 10.9825C-0.623981 8.48653 -0.623981 4.37163 1.87194 1.87571C4.09803 -0.350383 7.60582 -0.620213 10.1692 1.20114C10.439 1.40351 10.5065 1.87571 10.3041 2.14554C10.1017 2.41537 9.69699 2.48283 9.35971 2.28045C7.33599 0.796392 4.57024 0.998763 2.81634 2.82011C0.860081 4.77637 0.860081 8.01433 2.81634 9.97059C4.77261 11.9269 8.01056 11.9269 9.96682 9.97059C10.0343 9.90313 10.1017 9.83568 10.1692 9.70076C10.439 9.43093 10.8438 9.36347 11.1136 9.6333C11.3834 9.90313 11.4509 10.3079 11.1811 10.5777C11.1136 10.7126 10.9787 10.7801 10.9112 10.8475C9.62954 12.2641 8.01056 12.8713 6.39158 12.8713Z" fill="#606060"/>
<path d="M6.39188 9.36347C5.64985 9.36347 4.90782 9.09364 4.36816 8.48652C3.8285 7.94686 3.49121 7.20483 3.49121 6.4628C3.49121 5.72077 3.76104 4.97874 4.36816 4.43908C4.90782 3.89942 5.64985 3.56213 6.39188 3.56213C7.13391 3.56213 7.87594 3.83196 8.4156 4.43908C8.68543 4.70891 8.68543 5.11365 8.4156 5.38348C8.14577 5.65331 7.74102 5.65331 7.47119 5.38348C6.86408 4.77637 5.85222 4.77637 5.31256 5.38348C5.04273 5.65331 4.84036 6.05806 4.84036 6.4628C4.84036 6.86754 4.97527 7.27229 5.31256 7.54212C5.91968 8.14923 6.93154 8.14923 7.47119 7.54212C7.74102 7.27229 8.14577 7.27229 8.4156 7.54212C8.68543 7.81195 8.68543 8.21669 8.4156 8.48652C7.87594 9.09364 7.13391 9.36347 6.39188 9.36347Z" fill="#606060"/>
<path d="M24.3355 10.1729C23.3911 10.1729 22.9189 9.63329 22.5816 9.296C22.2443 8.95871 22.1094 8.8238 21.7721 8.8238C21.4349 8.8238 21.2999 8.95871 20.9627 9.296C20.6254 9.70075 20.1532 10.1729 19.2088 10.1729C18.2644 10.1729 17.7922 9.63329 17.4549 9.296C17.1176 8.95871 16.9827 8.8238 16.6454 8.8238C16.3081 8.8238 16.1732 8.95871 15.8359 9.296C15.4986 9.70075 15.0264 10.1729 14.082 10.1729C13.1376 10.1729 12.6654 9.63329 12.3281 9.296C12.0583 9.02617 11.9234 8.89126 11.721 8.8238C11.3837 8.75634 11.1139 8.3516 11.1813 8.01431C11.2488 7.67702 11.6535 7.40719 11.9908 7.47465C12.5979 7.60957 13.0027 8.01431 13.2725 8.28414C13.6098 8.62143 13.7447 8.75634 14.082 8.75634C14.4193 8.75634 14.5542 8.62143 14.8915 8.28414C15.2288 7.8794 15.701 7.4072 16.6454 7.4072C17.5898 7.4072 18.062 7.94685 18.3993 8.28414C18.7366 8.62143 18.8715 8.75634 19.2088 8.75634C19.546 8.75634 19.681 8.62143 20.0182 8.28414C20.3555 7.8794 20.8277 7.4072 21.7721 7.4072C22.7165 7.4072 23.1887 7.94685 23.526 8.28414C23.7284 8.48651 23.8633 8.62143 23.9982 8.68889L25.5497 6.39534L23.9982 4.03433H11.2488C10.844 4.03433 10.5742 3.7645 10.5742 3.35975C10.5742 2.95501 10.844 2.68518 11.2488 2.68518H24.3355C24.5379 2.68518 24.7403 2.8201 24.8752 2.95501L26.8989 5.99059C27.0338 6.19296 27.0338 6.53025 26.8989 6.73262L24.8752 9.7682C24.7403 10.1055 24.5379 10.1729 24.3355 10.1729Z" fill="#606060"/>
</svg>
