<svg width="7" height="5" viewBox="0 0 7 5" fill="none" xmlns="http://www.w3.org/2000/svg">
<path fill-rule="evenodd" clip-rule="evenodd" d="M0.21967 0.21967C0.512563 -0.0732233 0.987437 -0.0732233 1.28033 0.21967L3.5 2.43934L5.71967 0.21967C6.01256 -0.073223 6.48744 -0.073223 6.78033 0.21967C7.07322 0.512563 7.07322 0.987437 6.78033 1.28033L4.03033 4.03033C3.88968 4.17098 3.69891 4.25 3.5 4.25C3.30109 4.25 3.11032 4.17098 2.96967 4.03033L0.21967 1.28033C-0.0732233 0.987437 -0.0732233 0.512563 0.21967 0.21967Z" fill="#606060"/>
<path fill-rule="evenodd" clip-rule="evenodd" d="M0.21967 0.21967C0.512563 -0.0732233 0.987437 -0.0732233 1.28033 0.21967L3.5 2.43934L5.71967 0.21967C6.01256 -0.073223 6.48744 -0.073223 6.78033 0.21967C7.07322 0.512563 7.07322 0.987437 6.78033 1.28033L4.03033 4.03033C3.88968 4.17098 3.69891 4.25 3.5 4.25C3.30109 4.25 3.11032 4.17098 2.96967 4.03033L0.21967 1.28033C-0.0732233 0.987437 -0.0732233 0.512563 0.21967 0.21967Z" fill="#606060"/>
</svg>
