<svg width="23" height="29" viewBox="0 0 23 29" fill="none" xmlns="http://www.w3.org/2000/svg">
<path d="M5.27116 2.87496H10.0628C10.3273 2.87496 10.542 2.66029 10.542 2.39579C10.542 2.13129 10.3273 1.91663 10.0628 1.91663H5.27116C5.00666 1.91663 4.79199 2.13129 4.79199 2.39579C4.79199 2.66029 5.00666 2.87496 5.27116 2.87496Z" fill="#606060"/>
<path d="M7.18717 26.8333H8.14551C8.41001 26.8333 8.62467 26.6187 8.62467 26.3542C8.62467 26.0897 8.41001 25.875 8.14551 25.875H7.18717C6.92267 25.875 6.70801 26.0897 6.70801 26.3542C6.70801 26.6187 6.92267 26.8333 7.18717 26.8333Z" fill="#606060"/>
<path d="M12.9375 28.75H2.39583C1.07525 28.75 0 27.6757 0 26.3542V2.39583C0 1.07429 1.07525 0 2.39583 0H12.9375C14.2581 0 15.3333 1.07429 15.3333 2.39583C15.3333 2.66033 15.1187 2.875 14.8542 2.875C14.5897 2.875 14.375 2.66033 14.375 2.39583C14.375 1.60329 13.73 0.958333 12.9375 0.958333H2.39583C1.60329 0.958333 0.958333 1.60329 0.958333 2.39583V26.3542C0.958333 27.1467 1.60329 27.7917 2.39583 27.7917H12.9375C13.73 27.7917 14.375 27.1467 14.375 26.3542V21.5625C14.375 21.298 14.5897 21.0833 14.8542 21.0833C15.1187 21.0833 15.3333 21.298 15.3333 21.5625V26.3542C15.3333 27.6757 14.2581 28.75 12.9375 28.75Z" fill="#606060"/>
<path d="M11.0205 23.4792C10.962 23.4792 10.9026 23.4687 10.847 23.4466C10.6621 23.3757 10.5413 23.1975 10.5413 23V19.1667H8.14551C7.35297 19.1667 6.70801 18.5217 6.70801 17.7292V5.27087C6.70801 4.47833 7.35297 3.83337 8.14551 3.83337H21.5622C22.3547 3.83337 22.9997 4.47833 22.9997 5.27087V17.7292C22.9997 18.5217 22.3547 19.1667 21.5622 19.1667H15.1845L11.3741 23.324C11.2812 23.4246 11.1518 23.4792 11.0205 23.4792ZM8.14551 4.79171C7.88101 4.79171 7.66634 5.00733 7.66634 5.27087V17.7292C7.66634 17.9927 7.88101 18.2084 8.14551 18.2084H11.0205C11.285 18.2084 11.4997 18.423 11.4997 18.6875V21.7686L14.62 18.3636C14.7111 18.2649 14.8395 18.2084 14.9736 18.2084H21.5622C21.8267 18.2084 22.0413 17.9927 22.0413 17.7292V5.27087C22.0413 5.00733 21.8267 4.79171 21.5622 4.79171H8.14551Z" fill="#606060"/>
<path d="M14.8539 15.3334C16.1975 15.3334 17.2498 14.2812 17.2498 12.9376C17.2498 11.8499 16.5109 11.0573 15.0542 10.582L14.9459 10.5465C14.3997 10.3683 13.8956 10.1287 13.8956 9.58341C13.8956 9.01896 14.2895 8.62508 14.8539 8.62508C15.5286 8.62508 15.979 8.98733 15.9829 8.99116C16.187 9.16175 16.4879 9.13491 16.6585 8.93366C16.8291 8.7305 16.8022 8.42958 16.6 8.259C16.5713 8.23504 15.8851 7.66675 14.8539 7.66675C13.7605 7.66675 12.9373 8.49091 12.9373 9.58341C12.9373 10.9002 14.2253 11.3209 14.6479 11.457L14.7562 11.4924C15.7902 11.8297 16.2914 12.3032 16.2914 12.9376C16.2914 13.757 15.6733 14.3751 14.8539 14.3751C13.9646 14.3751 13.4557 13.7886 13.3206 13.6084C13.1615 13.3957 12.8606 13.3545 12.6498 13.5116C12.437 13.6707 12.3939 13.9707 12.553 14.1825C12.7561 14.4537 13.5199 15.3334 14.8539 15.3334Z" fill="#606060"/>
<path d="M14.8542 16.2917C15.1187 16.2917 15.3333 16.0771 15.3333 15.8126V15.3334C15.3333 15.0689 15.1187 14.8542 14.8542 14.8542C14.5897 14.8542 14.375 15.0689 14.375 15.3334V15.8126C14.375 16.0771 14.5897 16.2917 14.8542 16.2917Z" fill="#606060"/>
<path d="M14.8542 8.14587C15.1187 8.14587 15.3333 7.93121 15.3333 7.66671V7.18754C15.3333 6.92304 15.1187 6.70837 14.8542 6.70837C14.5897 6.70837 14.375 6.92304 14.375 7.18754V7.66671C14.375 7.93121 14.5897 8.14587 14.8542 8.14587Z" fill="#606060"/>
</svg>
