<svg width="27" height="15" viewBox="0 0 27 15" fill="#606060" xmlns="http://www.w3.org/2000/svg">
<path d="M4.93594 9.66089C4.17656 9.66089 3.58594 10.2515 3.58594 11.0109C3.58594 11.7703 4.17656 12.3609 4.93594 12.3609C5.69531 12.3609 6.28594 11.7703 6.28594 11.0109C6.28594 10.2515 5.69531 9.66089 4.93594 9.66089ZM4.93594 11.4328C4.68281 11.4328 4.51406 11.264 4.51406 11.0109C4.51406 10.7578 4.68281 10.589 4.93594 10.589C5.18906 10.589 5.35781 10.7578 5.35781 11.0109C5.35781 11.2218 5.18906 11.4328 4.93594 11.4328Z"/>
<path d="M20.3764 9.66089C19.617 9.66089 19.0264 10.2515 19.0264 11.0109C19.0264 11.7703 19.617 12.3609 20.3764 12.3609C21.1357 12.3609 21.7264 11.7703 21.7264 11.0109C21.7264 10.2515 21.1357 9.66089 20.3764 9.66089ZM20.3764 11.4328C20.1232 11.4328 19.9545 11.264 19.9545 11.0109C19.9545 10.7578 20.1232 10.589 20.3764 10.589C20.6295 10.589 20.7982 10.7578 20.7982 11.0109C20.7982 11.2218 20.6295 11.4328 20.3764 11.4328Z"/>
<path d="M25.8609 4.05H25.6078C25.3125 2.27813 23.3719 0 20.5453 0H10.9688C8.4375 0 6.24375 3.83906 5.69531 4.89375H3.24844C1.43437 4.89375 0 6.37031 0 8.14219V10.5047C0 11.0109 0.421875 11.4328 0.928125 11.4328H1.89844C2.10938 12.9094 3.41719 14.0484 4.93594 14.0484C6.45469 14.0484 7.7625 12.9094 7.97344 11.4328H17.3391C17.55 12.9094 18.8578 14.0484 20.3766 14.0484C21.8953 14.0484 23.2031 12.9094 23.4141 11.4328H24.7219C25.2281 11.4328 25.65 11.0109 25.65 10.5047V8.31094H25.8609C26.4937 8.31094 27 7.80469 27 7.17188V5.18906C27 4.55625 26.4937 4.05 25.8609 4.05ZM4.93594 13.1203C3.75469 13.1203 2.78437 12.15 2.78437 10.9688C2.78437 9.7875 3.75469 8.81719 4.93594 8.81719C6.11719 8.81719 7.0875 9.7875 7.0875 10.9688C7.0875 12.1922 6.11719 13.1203 4.93594 13.1203ZM20.3766 13.1203C19.1953 13.1203 18.225 12.15 18.225 10.9688C18.225 9.7875 19.1953 8.81719 20.3766 8.81719C21.5578 8.81719 22.5281 9.7875 22.5281 10.9688C22.5281 12.1922 21.5578 13.1203 20.3766 13.1203ZM24.7219 10.5469H23.4141C23.2031 9.07031 21.8953 7.93125 20.3766 7.93125C18.8578 7.93125 17.55 9.07031 17.3391 10.5469H7.97344C7.7625 9.07031 6.45469 7.93125 4.93594 7.93125C3.41719 7.93125 2.10938 9.07031 1.89844 10.5469H0.928125V8.18438C0.928125 6.91875 1.98281 5.86406 3.24844 5.86406H5.94844C6.11719 5.86406 6.28594 5.77969 6.37031 5.61094C7.00313 4.30313 9.07031 0.970313 10.9688 0.970313H20.5031C23.1187 0.970313 24.6797 3.29063 24.6797 4.55625V7.88906V10.5469H24.7219ZM26.0719 7.17188C26.0719 7.29844 25.9875 7.38281 25.8609 7.38281H25.65V4.97813H25.8609C25.9875 4.97813 26.0719 5.0625 26.0719 5.18906V7.17188Z"/>
<path d="M15.1455 1.94067H12.0236C10.8002 1.94067 9.61895 2.5313 8.98613 3.5438L7.93145 5.14692C7.84707 5.27349 7.84707 5.48442 7.93145 5.61099C8.01582 5.77974 8.18457 5.86411 8.35332 5.86411H15.1455C15.3986 5.86411 15.6096 5.65317 15.6096 5.40005V2.40474C15.6096 2.15161 15.3986 1.94067 15.1455 1.94067ZM14.6814 4.93599H9.19707L9.7877 4.05005C10.2518 3.33286 11.0955 2.8688 12.0236 2.8688H14.6814V4.93599Z"/>
<path d="M19.7439 1.94067H17.0861C16.833 1.94067 16.6221 2.15161 16.6221 2.40474V5.40005C16.6221 5.65317 16.833 5.86411 17.0861 5.86411H22.9502C23.2033 5.86411 23.4143 5.65317 23.4143 5.40005C23.4564 3.50161 21.8111 1.94067 19.7439 1.94067ZM17.5924 4.93599V2.8688H19.7861C21.1361 2.8688 22.2752 3.75474 22.4861 4.93599H17.5924Z"/>
</svg>
