<svg width="20" height="20" viewBox="0 0 20 20" fill="none" xmlns="http://www.w3.org/2000/svg">
<path d="M11.8095 20.0001C11.6695 20 11.5324 19.9606 11.4138 19.8864C11.2952 19.8121 11.1999 19.706 11.1387 19.5802L7.63077 12.3687L0.419342 8.86129C0.289433 8.79797 0.180703 8.69829 0.106352 8.57436C0.0320009 8.45044 -0.00477265 8.30759 0.00049636 8.16317C0.00576537 8.01874 0.0528502 7.87895 0.136034 7.76078C0.219218 7.6426 0.334922 7.55111 0.4691 7.49742L18.9746 0.0541174C19.1104 -0.000614237 19.2593 -0.0142021 19.4027 0.0150454C19.5462 0.0442929 19.6779 0.115084 19.7814 0.218607C19.8849 0.32213 19.9557 0.453813 19.985 0.597266C20.0142 0.740719 20.0006 0.889605 19.9459 1.02539L12.5021 19.5324C12.4481 19.6665 12.3564 19.782 12.238 19.8649C12.1197 19.9479 11.9798 19.9947 11.8353 19.9996L11.8095 20.0001ZM2.58531 8.25723L8.51547 11.1432C8.66578 11.2163 8.7872 11.3377 8.86029 11.488L11.7463 17.4182L17.9058 2.09022L2.58531 8.25723Z" fill="#606060"/>
</svg>
