<svg width="27" height="22" viewBox="0 0 27 22" fill="none" xmlns="http://www.w3.org/2000/svg">
<path d="M13.5007 12.6668C15.8018 12.6668 17.6673 10.8013 17.6673 8.50016C17.6673 6.19898 15.8018 4.3335 13.5007 4.3335C11.1995 4.3335 9.33398 6.19898 9.33398 8.50016C9.33398 10.8013 11.1995 12.6668 13.5007 12.6668Z" stroke="#606060" stroke-width="2" stroke-linecap="round" stroke-linejoin="round"/>
<path d="M19.3337 21C19.3337 19.4529 18.7191 17.9691 17.6251 16.8752C16.5312 15.7812 15.0474 15.1666 13.5003 15.1666C11.9532 15.1666 10.4695 15.7812 9.37554 16.8752C8.28157 17.9691 7.66699 19.4529 7.66699 21H19.3337Z" stroke="#606060" stroke-width="2" stroke-linecap="round" stroke-linejoin="round"/>
<path d="M20.1663 9.33333C20.8766 9.33333 21.575 9.15178 22.1954 8.80592C22.8157 8.46006 23.3373 7.96138 23.7107 7.35721C24.0841 6.75305 24.2969 6.06347 24.3288 5.35395C24.3607 4.64443 24.2107 3.93853 23.8931 3.30328C23.5755 2.66802 23.1008 2.1245 22.514 1.72433C21.9272 1.32416 21.2479 1.08062 20.5405 1.01684C19.8332 0.953054 19.1212 1.07115 18.4723 1.3599C17.8235 1.64865 17.2591 2.09848 16.833 2.66667" stroke="#606060" stroke-width="2" stroke-linecap="round" stroke-linejoin="round"/>
<path d="M21.0003 17.6667H26.0003C26.0003 16.1196 25.3857 14.6359 24.2918 13.5419C23.1978 12.448 21.7141 11.8334 20.167 11.8334" stroke="#606060" stroke-width="2" stroke-linecap="round" stroke-linejoin="round"/>
<path d="M10.167 2.66667C9.74085 2.09848 9.17654 1.64865 8.52765 1.3599C7.87876 1.07115 7.16684 0.953054 6.45947 1.01684C5.7521 1.08062 5.07278 1.32416 4.48601 1.72433C3.89924 2.1245 3.42451 2.66802 3.10688 3.30328C2.78925 3.93853 2.63928 4.64443 2.6712 5.35395C2.70313 6.06347 2.91589 6.75305 3.28928 7.35721C3.66267 7.96138 4.18431 8.46006 4.80464 8.80592C5.42498 9.15178 6.12342 9.33333 6.83366 9.33333" stroke="#606060" stroke-width="2" stroke-linecap="round" stroke-linejoin="round"/>
<path d="M6.83333 11.8334C5.28624 11.8334 3.80251 12.448 2.70854 13.5419C1.61458 14.6359 1 16.1196 1 17.6667H6" stroke="#606060" stroke-width="2" stroke-linecap="round" stroke-linejoin="round"/>
</svg>
