<svg width="24" height="24" viewBox="0 0 24 24" fill="none" xmlns="http://www.w3.org/2000/svg">
<path d="M12 0C5.37293 0 0 5.37218 0 12C0 18.6278 5.37293 24 12 24C18.6274 24 24 18.6278 24 12C24 5.37218 18.6274 0 12 0ZM12 22.2521C6.33757 22.2521 1.74717 17.6624 1.74717 12C1.74717 6.33757 6.33757 1.74717 12 1.74717C17.6624 1.74717 22.2521 6.33757 22.2521 12C22.2521 17.6624 17.6624 22.2521 12 22.2521Z" fill="#606060"/>
<path d="M20.7683 10.2977C20.6072 9.49268 20.3421 8.72442 19.9816 8.01323C19.5228 7.13383 18.6978 7.75077 18.6978 7.75077L18.6956 7.74175C17.458 8.6726 16.0994 8.96774 15.1475 8.35418C14.2441 7.77104 13.9313 6.51915 14.1893 5.10204L14.184 5.10241C14.184 5.10241 14.1889 5.08552 14.1945 5.06149C14.2036 5.0138 14.2152 4.96536 14.2261 4.91767C14.3109 4.46783 14.4101 3.34285 13.3317 3.20355C12.8942 3.13821 12.4481 3.10254 11.9934 3.10254C11.4035 3.10254 10.8286 3.166 10.2699 3.27489C9.30525 3.55501 9.7228 4.63943 9.7228 4.63943L9.71116 4.64244C10.1336 6.24354 9.86286 7.70946 8.8633 8.35418C7.99553 8.91292 6.79095 8.72667 5.64908 7.98657C5.64758 7.98657 5.6472 7.98657 5.64645 7.98582C4.57479 7.36588 4.11256 7.86116 3.96499 8.09885C3.62254 8.79313 3.36946 9.53849 3.21476 10.3188C3.14679 11.0979 4.31983 10.9072 4.31983 10.9072C4.31983 10.9072 4.32209 10.9128 4.32284 10.9139C5.73882 10.6683 6.98658 10.9901 7.56221 11.8962C8.38379 13.1917 7.55283 15.2204 5.70427 16.6755L5.7069 16.6781C5.7069 16.6781 4.80084 17.3532 5.38285 18.0825C6.09516 18.865 6.94866 19.5112 7.89528 20.0008C8.19717 20.106 9.00673 20.2596 9.41377 19.0959C9.41715 19.0884 9.4194 19.0854 9.42165 19.0779C9.8959 17.3382 10.9784 16.1201 12.2439 16.119C13.4717 16.1175 14.5272 17.2646 15.0229 18.9206L15.0255 18.9179C15.0255 18.9179 15.3897 20.2765 16.2421 19.9306C16.3089 19.8953 16.3765 19.8638 16.4411 19.8266C16.4419 19.8266 16.4419 19.8255 16.4422 19.8255C16.4449 19.824 16.4467 19.8229 16.4501 19.8202C17.2604 19.3546 17.9896 18.7643 18.6148 18.0772C19.1522 17.3694 18.2217 16.6135 18.2217 16.6135L18.2236 16.6109C16.4317 15.1619 15.6372 13.1721 16.4467 11.8958C17.0306 10.9778 18.3047 10.6623 19.7436 10.9267C19.7428 10.9256 19.7406 10.9169 19.7406 10.9169C19.7406 10.9169 20.9568 11.1666 20.7683 10.2977ZM12.0002 15.1743C10.2474 15.1743 8.82575 13.753 8.82575 12.0002C8.82575 10.2474 10.2474 8.8258 12.0002 8.8258C13.753 8.8258 15.1742 10.2474 15.1742 12.0002C15.1742 13.753 13.753 15.1743 12.0002 15.1743Z" fill="#606060"/>
<path d="M12.0003 13.5871C12.8769 13.5871 13.5875 12.8765 13.5875 11.9999C13.5875 11.1233 12.8769 10.4127 12.0003 10.4127C11.1237 10.4127 10.4131 11.1233 10.4131 11.9999C10.4131 12.8765 11.1237 13.5871 12.0003 13.5871Z" fill="#606060"/>
</svg>
